<?xml version="1.0" encoding="utf-8"?>
<!-- Generator: Adobe Illustrator 24.1.3, SVG Export Plug-In . SVG Version: 6.00 Build 0)  -->
<svg version="1.1" id="Layer_1" xmlns="http://www.w3.org/2000/svg" xmlns:xlink="http://www.w3.org/1999/xlink" x="0px" y="0px"
	 viewBox="0 0 612 792" style="enable-background:new 0 0 612 792;" xml:space="preserve">
<style type="text/css">
	.st0{fill:#00FF00;stroke:#000000;stroke-miterlimit:10;}
</style>
<path class="st0" d="M56.8,63.9l-12.4-3.4l2.7-6L59,59.9l1.5-15.1h6.2l-3.3,15l13.2-5.2l0.9,6.5l-13.7,3.3l7.1,11.6l-5.4,3.7
	L60,66.9l-9.2,12.4l-4.7-3.9L56.8,63.9z"/>
<path class="st0" d="M99.4,63.9L87,60.5l2.7-6l11.9,5.4l1.5-15.1h6.2l-3.3,15l13.2-5.2l0.9,6.5l-13.7,3.3l7.1,11.6l-5.4,3.7
	l-5.4-12.9l-9.2,12.4l-4.7-3.9L99.4,63.9z"/>
<path class="st0" d="M142,63.9l-12.4-3.4l2.7-6l11.9,5.4l1.5-15.1h6.2l-3.3,15l13.2-5.2l0.9,6.5l-13.7,3.3l7.1,11.6l-5.4,3.7
	l-5.4-12.9L136,79.3l-4.7-3.9L142,63.9z"/>
<path class="st0" d="M184.6,63.9l-12.4-3.4l2.7-6l11.9,5.4l1.5-15.1h6.2l-3.3,15l13.2-5.2l0.9,6.5l-13.7,3.3l7.1,11.6l-5.4,3.7
	l-5.4-12.9l-9.2,12.4l-4.7-3.9L184.6,63.9z"/>
<path class="st0" d="M227.3,63.9l-12.4-3.4l2.7-6l11.9,5.4l1.5-15.1h6.2l-3.3,15l13.2-5.2l0.9,6.5l-13.7,3.3l7.1,11.6l-5.4,3.7
	l-5.4-12.9l-9.2,12.4l-4.7-3.9L227.3,63.9z"/>
<path class="st0" d="M269.9,63.9l-12.4-3.4l2.7-6l11.9,5.4l1.5-15.1h6.2l-3.3,15l13.2-5.2l0.9,6.5l-13.7,3.3l7.1,11.6l-5.4,3.7
	l-5.4-12.9l-9.2,12.4l-4.7-3.9L269.9,63.9z"/>
<path class="st0" d="M65,175.4c-0.2-0.7-0.3-1.4-0.3-2.1c0-0.7,0-1.4,0.1-2.1c-1.7,1.5-3.5,2.7-5.5,3.6c-2,0.9-4.1,1.3-6.4,1.3
	c-1.6,0-3.1-0.3-4.6-0.8c-1.4-0.5-2.7-1.3-3.7-2.2c-1.1-0.9-1.9-2.1-2.4-3.4c-0.6-1.3-0.8-2.9-0.7-4.6c0.1-1.7,0.4-3.1,1-4.4
	c0.6-1.3,1.3-2.4,2.3-3.4c0.9-1,2-1.8,3.2-2.4c1.2-0.7,2.5-1.2,3.8-1.6c1.4-0.4,2.8-0.7,4.2-0.9c1.5-0.2,2.9-0.3,4.3-0.3l7.3,0
	l0.5-3c0.1-1.2,0.1-2.3-0.3-3.2s-0.8-1.7-1.5-2.3c-0.7-0.6-1.5-1.1-2.4-1.5c-1-0.3-2-0.5-3.2-0.5c-1,0-2,0.1-3,0.3
	c-1,0.2-1.9,0.6-2.7,1.1c-0.8,0.5-1.5,1.1-2.1,1.9c-0.6,0.8-1,1.7-1.2,2.7l-6.4,0c0.2-1.9,0.8-3.6,1.9-5.1c1-1.4,2.3-2.6,3.8-3.6
	c1.5-0.9,3.2-1.6,5-2.1c1.8-0.5,3.6-0.7,5.4-0.7c1.9,0,3.7,0.4,5.4,0.9c1.7,0.6,3.1,1.4,4.3,2.5c1.2,1.1,2.1,2.4,2.7,4
	c0.6,1.6,0.8,3.4,0.6,5.5l-3,17.8c-0.2,1.3-0.3,2.6-0.3,3.9c0,1.3,0.1,2.6,0.4,3.9l-0.1,0.6H65z M54.2,170.4c2.3,0,4.4-0.5,6.3-1.5
	c2-1.1,3.6-2.5,4.9-4.3l1.4-7.8l-5.5,0c-1.3,0-2.7,0.1-4.2,0.2c-1.5,0.2-2.9,0.5-4.2,1c-1.3,0.5-2.4,1.3-3.3,2.2
	c-0.9,1-1.5,2.2-1.7,3.8c-0.1,1,0,1.9,0.2,2.7c0.3,0.8,0.7,1.4,1.2,2c0.6,0.5,1.3,0.9,2.1,1.2C52.4,170.3,53.2,170.4,54.2,170.4z"/>
<path class="st0" d="M93.3,120.9h19.1l-8.5,48.8h12.2l-1,5.7H83.8l1-5.7h12.6l7.5-43.1H92.3L93.3,120.9z"/>
<path class="st0" d="M152.8,161.4l9.7-37.6h6.2l-14.2,51.6H148l-0.3-38.8l-12.6,38.8h-6.6l2-51.6h6l-2.1,37.4l12.2-37.4h5.6
	L152.8,161.4z"/>
<path class="st0" d="M192.9,175.4c-0.2-0.7-0.3-1.4-0.3-2.1c0-0.7,0-1.4,0.1-2.1c-1.7,1.5-3.5,2.7-5.5,3.6c-2,0.9-4.1,1.3-6.4,1.3
	c-1.6,0-3.1-0.3-4.6-0.8c-1.4-0.5-2.7-1.3-3.7-2.2c-1.1-0.9-1.9-2.1-2.4-3.4c-0.6-1.3-0.8-2.9-0.7-4.6c0.1-1.7,0.4-3.1,1-4.4
	c0.6-1.3,1.3-2.4,2.3-3.4c0.9-1,2-1.8,3.2-2.4c1.2-0.7,2.5-1.2,3.8-1.6c1.4-0.4,2.8-0.7,4.2-0.9c1.5-0.2,2.9-0.3,4.3-0.3l7.3,0
	l0.5-3c0.1-1.2,0.1-2.3-0.3-3.2s-0.8-1.7-1.5-2.3c-0.7-0.6-1.5-1.1-2.4-1.5c-1-0.3-2-0.5-3.2-0.5c-1,0-2,0.1-3,0.3
	c-1,0.2-1.9,0.6-2.7,1.1c-0.8,0.5-1.5,1.1-2.1,1.9c-0.6,0.8-1,1.7-1.2,2.7l-6.4,0c0.2-1.9,0.8-3.6,1.9-5.1c1-1.4,2.3-2.6,3.8-3.6
	c1.5-0.9,3.2-1.6,5-2.1c1.8-0.5,3.6-0.7,5.4-0.7c1.9,0,3.7,0.4,5.4,0.9c1.7,0.6,3.1,1.4,4.3,2.5c1.2,1.1,2.1,2.4,2.7,4
	c0.6,1.6,0.8,3.4,0.6,5.5l-3,17.8c-0.2,1.3-0.3,2.6-0.3,3.9c0,1.3,0.1,2.6,0.4,3.9l-0.1,0.6H192.9z M182.1,170.4
	c2.3,0,4.4-0.5,6.3-1.5c2-1.1,3.6-2.5,4.9-4.3l1.4-7.8l-5.5,0c-1.3,0-2.7,0.1-4.2,0.2c-1.5,0.2-2.9,0.5-4.2,1
	c-1.3,0.5-2.4,1.3-3.3,2.2c-0.9,1-1.5,2.2-1.7,3.8c-0.1,1,0,1.9,0.2,2.7c0.3,0.8,0.7,1.4,1.2,2c0.6,0.5,1.3,0.9,2.1,1.2
	C180.2,170.3,181.1,170.4,182.1,170.4z"/>
<path class="st0" d="M226.7,162.1l0.7,4.3l16.5-29.3h7.5l-26.5,44.3c-0.7,1.2-1.5,2.4-2.4,3.6s-1.9,2.2-3,3.1
	c-1.1,0.9-2.3,1.6-3.6,2.2c-1.3,0.5-2.7,0.8-4.3,0.8c-0.7,0-1.4-0.1-2.1-0.2c-0.7-0.1-1.4-0.3-2.1-0.4l1.5-5.4c0.5,0,1,0.1,1.6,0.2
	s1,0.1,1.5,0.1c0.9,0,1.8-0.2,2.6-0.7c0.8-0.4,1.5-1,2.1-1.6c0.6-0.6,1.2-1.3,1.7-2.1c0.5-0.8,1-1.5,1.5-2.2l3.7-5.5l-9.6-36.2h6.8
	L226.7,162.1z"/>
<path class="st0" d="M280.1,165c0.1-1.1,0-2-0.5-2.7c-0.5-0.7-1.2-1.3-2-1.7c-0.8-0.4-1.7-0.8-2.7-1.1c-1-0.3-1.8-0.5-2.6-0.7
	c-1.4-0.4-2.9-0.8-4.4-1.3c-1.5-0.5-2.9-1.2-4.2-2c-1.3-0.8-2.3-1.9-3.1-3.1c-0.8-1.2-1.2-2.7-1.1-4.5c0-1.3,0.3-2.5,0.8-3.6
	c0.5-1.1,1.1-2,1.9-2.9c0.8-0.9,1.7-1.6,2.7-2.3s2.1-1.2,3.3-1.6c1.1-0.4,2.3-0.7,3.5-0.9c1.2-0.2,2.4-0.3,3.5-0.3
	c1.8,0,3.5,0.3,5.2,0.9c1.7,0.5,3.1,1.3,4.4,2.3c1.3,1,2.2,2.2,3,3.7c0.7,1.5,1.1,3.2,1.1,5.2l-6.3,0c0-1.1-0.2-2-0.6-2.8
	c-0.4-0.8-1-1.5-1.6-2c-0.7-0.6-1.5-1-2.4-1.3c-0.9-0.3-1.9-0.4-2.9-0.5c-0.9,0-1.9,0.1-2.9,0.3c-1,0.2-1.9,0.5-2.8,1
	s-1.6,1.1-2.2,1.8s-1,1.6-1.1,2.7c-0.1,1.1,0,1.9,0.5,2.6c0.5,0.7,1.1,1.2,1.9,1.6c0.8,0.4,1.6,0.7,2.6,1c0.9,0.2,1.8,0.4,2.6,0.6
	c1,0.2,2,0.5,3,0.8c1,0.3,2.1,0.7,3,1.1c1,0.4,1.9,0.9,2.8,1.5c0.9,0.6,1.6,1.2,2.3,2s1.1,1.6,1.5,2.6s0.5,2.1,0.5,3.3
	c-0.1,2.1-0.7,3.8-1.7,5.3c-1,1.5-2.3,2.7-3.9,3.6c-1.6,0.9-3.3,1.6-5.2,2.1c-1.9,0.4-3.7,0.6-5.5,0.6c-1.9,0-3.7-0.3-5.5-0.9
	c-1.8-0.5-3.3-1.3-4.7-2.4s-2.5-2.4-3.3-3.9c-0.8-1.5-1.2-3.4-1.2-5.4l6.4,0c0,1.2,0.3,2.3,0.7,3.2c0.4,0.9,1.1,1.6,1.8,2.2
	c0.8,0.6,1.6,1,2.7,1.3c1,0.3,2.1,0.4,3.3,0.4c0.9,0,2-0.1,3-0.2c1.1-0.2,2.1-0.5,3-0.9c0.9-0.4,1.8-1,2.4-1.8
	C279.5,167,279.9,166.1,280.1,165z"/>
<path class="st0" d="M106.2,214.9l-1.6,9.3h14.2l-0.9,5.1h-14.2l-3.5,20.9c-0.1,1-0.1,2,0,2.9c0.1,0.9,0.4,1.7,0.8,2.3
	c0.4,0.7,1,1.2,1.7,1.6c0.7,0.4,1.7,0.6,2.8,0.6c1.3,0,2.6,0,3.9-0.3s2.6-0.5,3.8-0.8l0.6,4.7c-1.5,0.8-3.1,1.4-5,1.6
	c-1.8,0.3-3.6,0.4-5.2,0.3c-1.9,0-3.5-0.4-4.9-1.1c-1.3-0.7-2.4-1.7-3.2-2.9c-0.8-1.2-1.4-2.6-1.6-4.1c-0.3-1.6-0.4-3.2-0.2-5
	l3.5-20.9h-9.8l0.9-5.1h9.8l1.6-9.3H106.2z"/>
<path class="st0" d="M137.2,229.9c0.8-0.9,1.6-1.8,2.5-2.6c0.9-0.8,1.9-1.5,2.9-2.1s2.1-1,3.3-1.3c1.1-0.3,2.4-0.5,3.6-0.4
	c2.2,0,4,0.5,5.5,1.3c1.5,0.8,2.6,1.9,3.5,3.3c0.9,1.4,1.4,2.9,1.7,4.7c0.3,1.8,0.3,3.6,0.1,5.6l-4,24.1h-6.4l4.1-24.3
	c0.1-1.3,0.1-2.4,0-3.5c-0.1-1.1-0.5-2.1-1-2.9c-0.5-0.8-1.2-1.5-2.1-2s-2.1-0.8-3.5-0.8c-1.1,0-2.1,0.1-3.1,0.4
	c-1,0.3-1.9,0.7-2.8,1.2c-0.9,0.5-1.7,1.1-2.5,1.8c-0.8,0.7-1.5,1.4-2.2,2.2l-4.9,27.9h-6.4l9.5-54.5h6.4L137.2,229.9z"/>
<path class="st0" d="M185,263.3c-2.6,0-4.9-0.6-6.9-1.6c-2-1-3.6-2.4-4.9-4s-2.2-3.6-2.7-5.8c-0.6-2.2-0.7-4.5-0.5-7l0.2-1.5
	c0.2-1.7,0.6-3.3,1.1-5c0.5-1.6,1.2-3.2,2.1-4.7c0.9-1.5,1.9-2.9,3-4.1c1.1-1.3,2.4-2.3,3.8-3.2c1.4-0.9,2.9-1.6,4.6-2.1
	c1.6-0.5,3.4-0.7,5.2-0.7c2.6,0.1,4.9,0.6,6.7,1.7c1.8,1.1,3.3,2.5,4.3,4.2c1.1,1.7,1.8,3.7,2.1,6c0.4,2.2,0.4,4.5,0.1,6.9l-0.5,2.9
	h-26.4c-0.2,1.6-0.1,3.1,0.2,4.6c0.3,1.5,0.8,2.8,1.6,4c0.8,1.2,1.8,2.1,3,2.9c1.3,0.7,2.7,1.1,4.5,1.2c2.2,0.1,4.3-0.4,6.2-1.3
	c1.9-0.9,3.6-2.2,5.1-3.8l3.7,3.1c-0.9,1.2-1.9,2.3-3.1,3.2c-1.2,0.9-2.4,1.7-3.8,2.3c-1.3,0.6-2.8,1.1-4.2,1.4
	C187.9,263.1,186.4,263.3,185,263.3z M189.6,228.9c-1.7-0.1-3.1,0.2-4.5,0.8c-1.3,0.6-2.5,1.5-3.5,2.5c-1,1-1.9,2.2-2.7,3.6
	c-0.8,1.3-1.4,2.7-1.9,4.1l20,0.1l0.1-0.6c0.2-1.3,0.2-2.6,0-3.8c-0.2-1.2-0.7-2.3-1.3-3.3c-0.7-1-1.5-1.8-2.6-2.4
	C192.3,229.2,191,228.9,189.6,228.9z"/>
<path class="st0" d="M111.5,336.4c0.2-1.4,0-2.7-0.5-3.7c-0.5-1-1.2-1.9-2.1-2.7c-0.9-0.7-2-1.4-3.1-1.9c-1.2-0.5-2.3-1-3.4-1.4
	c-1.7-0.6-3.3-1.4-5-2.3c-1.7-0.9-3.1-1.9-4.4-3.1c-1.3-1.2-2.3-2.6-3.1-4.1c-0.8-1.6-1.1-3.4-1-5.4c0.1-2.2,0.8-4.3,1.8-6.1
	c1.1-1.8,2.5-3.3,4.2-4.6c1.7-1.3,3.6-2.2,5.7-2.8c2.1-0.6,4.2-0.9,6.3-0.9c2.2,0,4.3,0.5,6.1,1.3c1.9,0.8,3.5,1.9,4.8,3.3
	c1.3,1.4,2.4,3,3.1,4.9c0.7,1.9,1.1,3.9,1,6.2h-6.5c-0.1-1.4-0.3-2.7-0.7-3.8c-0.4-1.2-0.9-2.2-1.6-3.1s-1.6-1.6-2.7-2.1
	s-2.4-0.8-3.8-0.9c-1.3,0-2.5,0.2-3.8,0.5c-1.3,0.4-2.4,1-3.4,1.7c-1,0.7-1.9,1.7-2.5,2.7c-0.7,1.1-1.1,2.3-1.2,3.7
	c-0.1,1.4,0.1,2.5,0.6,3.5c0.5,1,1.3,1.8,2.2,2.5c0.9,0.7,1.9,1.3,3,1.8c1.1,0.5,2.2,0.9,3.3,1.3c1.7,0.6,3.5,1.4,5.2,2.3
	c1.7,0.9,3.2,2,4.5,3.2c1.3,1.3,2.3,2.7,3.1,4.3s1,3.5,0.9,5.7c-0.2,2.3-0.8,4.4-2,6.2c-1.1,1.8-2.6,3.3-4.3,4.5
	c-1.7,1.2-3.7,2.1-5.8,2.7c-2.1,0.6-4.3,0.9-6.4,0.8c-2.3,0-4.4-0.4-6.4-1.2c-2-0.8-3.7-1.8-5.2-3.2c-1.5-1.4-2.6-3-3.5-4.9
	c-0.8-1.9-1.2-4-1.2-6.3h6.5c0.1,1.5,0.3,2.8,0.8,4.1c0.5,1.2,1.1,2.3,2,3.1c0.8,0.9,1.9,1.6,3,2.1c1.2,0.5,2.5,0.8,4.1,0.8
	c1.3,0,2.6-0.1,3.9-0.5c1.3-0.3,2.5-0.9,3.5-1.6c1.1-0.7,2-1.6,2.7-2.7S111.3,337.8,111.5,336.4z"/>
<path class="st0" d="M151.8,336.3h-16.6l-6.4,13.4h-6.7l25.1-51.6h5.4l6.9,51.6h-6.1L151.8,336.3z M137.8,330.6h13.3l-2.7-22.3
	L137.8,330.6z"/>
<path class="st0" d="M177.7,311.3l-0.7,3.7c1-1.3,2.1-2.4,3.4-3.2c1.3-0.8,2.8-1.2,4.5-1.1c0.7,0,1.4,0.1,2.1,0.2
	c0.7,0.2,1.3,0.4,1.8,0.7c0.6,0.3,1,0.8,1.5,1.3c0.4,0.5,0.7,1.1,0.9,1.8c1-1.2,2.1-2.2,3.4-3s2.7-1.1,4.4-1.1
	c1.5,0,2.7,0.3,3.7,0.9c1,0.6,1.8,1.4,2.3,2.4c0.6,1,0.9,2.1,1.1,3.3c0.2,1.2,0.2,2.5,0.1,3.8l-4.8,28.7h-6.1l4.8-28.8
	c0.1-0.7,0.1-1.3,0-1.9c-0.1-0.6-0.2-1.1-0.5-1.5c-0.2-0.4-0.6-0.8-1.1-1c-0.5-0.2-1.1-0.4-1.8-0.4c-1.3,0-2.4,0.4-3.3,1.1
	c-0.9,0.7-1.6,1.7-1.9,2.9l-5,29.6h-6.1l4.9-28.8c0.1-0.6,0.1-1.2,0-1.8c-0.1-0.6-0.2-1-0.5-1.5c-0.2-0.4-0.6-0.8-1-1
	c-0.4-0.3-1-0.4-1.7-0.4c-1.2,0-2.2,0.2-3,0.7c-0.8,0.5-1.5,1.2-2.2,2.2l-5.3,30.6h-6.1l6.6-38.4L177.7,311.3z"/>
<path class="st0" d="M242.4,325.8h-20.9l-3.2,18.3h24.4l-1,5.6H211l9-51.6h30.5l-1,5.6h-24.1l-2.9,16.6h20.9L242.4,325.8z"/>
<path class="st0" d="M56.8,412.5l-12.4-3.4l2.7-6l11.9,5.4l1.5-15.1h6.2l-3.3,15l13.2-5.2l0.9,6.5L63.6,413l7.1,11.6l-5.4,3.7
	L60,415.5l-9.2,12.4l-4.7-3.9L56.8,412.5z"/>
<path class="st0" d="M99.4,412.5L87,409.1l2.7-6l11.9,5.4l1.5-15.1h6.2l-3.3,15l13.2-5.2l0.9,6.5l-13.7,3.3l7.1,11.6l-5.4,3.7
	l-5.4-12.9l-9.2,12.4l-4.7-3.9L99.4,412.5z"/>
<path class="st0" d="M142,412.5l-12.4-3.4l2.7-6l11.9,5.4l1.5-15.1h6.2l-3.3,15l13.2-5.2l0.9,6.5l-13.7,3.3l7.1,11.6l-5.4,3.7
	l-5.4-12.9l-9.2,12.4l-4.7-3.9L142,412.5z"/>
<path class="st0" d="M184.6,412.5l-12.4-3.4l2.7-6l11.9,5.4l1.5-15.1h6.2l-3.3,15l13.2-5.2l0.9,6.5l-13.7,3.3l7.1,11.6l-5.4,3.7
	l-5.4-12.9l-9.2,12.4l-4.7-3.9L184.6,412.5z"/>
<path class="st0" d="M227.3,412.5l-12.4-3.4l2.7-6l11.9,5.4l1.5-15.1h6.2l-3.3,15l13.2-5.2l0.9,6.5l-13.7,3.3l7.1,11.6l-5.4,3.7
	l-5.4-12.9l-9.2,12.4l-4.7-3.9L227.3,412.5z"/>
<path class="st0" d="M269.9,412.5l-12.4-3.4l2.7-6l11.9,5.4l1.5-15.1h6.2l-3.3,15l13.2-5.2l0.9,6.5l-13.7,3.3l7.1,11.6l-5.4,3.7
	l-5.4-12.9l-9.2,12.4l-4.7-3.9L269.9,412.5z"/>
</svg>
