<?xml version="1.0" encoding="utf-8"?>
<!-- Generator: Adobe Illustrator 24.1.3, SVG Export Plug-In . SVG Version: 6.00 Build 0)  -->
<svg version="1.1" id="Layer_1" xmlns="http://www.w3.org/2000/svg" xmlns:xlink="http://www.w3.org/1999/xlink" x="0px" y="0px"
	 viewBox="0 0 1125 2436" style="enable-background:new 0 0 1125 2436;" xml:space="preserve">
<style type="text/css">
	.st0{fill:none;stroke:#000000;stroke-miterlimit:10;}
	.st1{fill:none;stroke:#000000;stroke-width:10;stroke-miterlimit:10;}
	.st2{fill:none;stroke:#000000;stroke-width:6;stroke-miterlimit:10;}
	.st3{fill:none;stroke:#000000;stroke-width:2;stroke-miterlimit:10;}
	.st4{fill:#F2F2F2;}
</style>
<g>
	<g>
		<path d="M188.3,632.1h61.8v457.3h269.1v57.3H188.3V632.1z"/>
		<path d="M620.6,632.1h311.7v57.3h-250V860h245.5v57.3H682.3v172h254.4v57.3H620.6V632.1z"/>
	</g>
	<g>
		<path d="M472.4,1427.5c0-16.7-3.3-31.4-9.9-44.1c-6.6-12.7-15.6-23.3-26.8-31.6c-11.3-8.3-24.3-14.7-39-19.1
			c-14.7-4.4-30.1-6.6-46.3-6.6c-14.2,0-27.7,1.8-40.4,5.5c-12.8,3.7-24.1,8.9-34.2,15.8c-10.1,6.9-18,15.3-23.9,25.4
			c-5.9,10.1-8.8,21.7-8.8,34.9v4.4c0,14.2,2.9,26.3,8.8,36.4c5.9,10.1,14.6,18.6,26.1,25.7c11.5,7.1,25.8,13,43,17.6
			c17.1,4.7,37.2,8.7,60.3,12.1c53.9,8.3,93.6,24.1,119.1,47.4c25.5,23.3,38.2,54.5,38.2,93.7v8.8c0,22.1-3.8,42.3-11.4,60.6
			c-7.6,18.4-18.9,34.2-33.8,47.4c-15,13.2-33.4,23.5-55.5,30.9c-22.1,7.4-47.5,11-76.5,11c-32.8,0-61.9-4.8-87.1-14.3
			c-25.2-9.6-46.3-22.8-63.2-39.7c-16.9-16.9-29.8-36.8-38.6-59.5c-8.8-22.8-13.2-47.7-13.2-74.6v-22.1H221v17.6
			c0,45.1,12.4,78.9,37.1,101.5c24.7,22.6,59.2,33.8,103.3,33.8c38.2,0,67-8.5,86.4-25.4c19.4-16.9,29-39.3,29-67.3v-4.4
			c0-26.9-9.9-47.5-29.8-61.8c-19.8-14.2-52.1-24.5-96.7-30.9c-26-3.4-49.4-8.7-70.2-15.8c-20.8-7.1-38.6-16.4-53.3-27.9
			c-14.7-11.5-26-25.4-33.8-41.5c-7.8-16.2-11.8-35.3-11.8-57.3v-8.8c0-20.1,4.2-38.5,12.5-55.1c8.3-16.7,20-31.1,34.9-43.4
			c14.9-12.2,32.8-21.7,53.7-28.3c20.8-6.6,43.7-9.9,68.7-9.9c28.9,0,54.8,4.2,77.6,12.5c22.8,8.3,42,19.5,57.7,33.4
			c15.7,14,27.6,30.4,35.7,49.3c8.1,18.9,12.1,38.6,12.1,59.2v30.9h-61.8V1427.5z"/>
		<path d="M899.6,1427.5c0-16.7-3.3-31.4-9.9-44.1c-6.6-12.7-15.6-23.3-26.8-31.6c-11.3-8.3-24.3-14.7-39-19.1
			c-14.7-4.4-30.1-6.6-46.3-6.6c-14.2,0-27.7,1.8-40.4,5.5c-12.8,3.7-24.1,8.9-34.2,15.8c-10.1,6.9-18,15.3-23.9,25.4
			c-5.9,10.1-8.8,21.7-8.8,34.9v4.4c0,14.2,2.9,26.3,8.8,36.4c5.9,10.1,14.6,18.6,26.1,25.7c11.5,7.1,25.8,13,43,17.6
			c17.1,4.7,37.2,8.7,60.3,12.1c53.9,8.3,93.6,24.1,119.1,47.4c25.5,23.3,38.2,54.5,38.2,93.7v8.8c0,22.1-3.8,42.3-11.4,60.6
			c-7.6,18.4-18.9,34.2-33.8,47.4c-15,13.2-33.4,23.5-55.5,30.9c-22.1,7.4-47.5,11-76.5,11c-32.8,0-61.9-4.8-87.1-14.3
			c-25.2-9.6-46.3-22.8-63.2-39.7c-16.9-16.9-29.8-36.8-38.6-59.5c-8.8-22.8-13.2-47.7-13.2-74.6v-22.1h61.8v17.6
			c0,45.1,12.4,78.9,37.1,101.5c24.7,22.6,59.2,33.8,103.3,33.8c38.2,0,67-8.5,86.4-25.4c19.4-16.9,29-39.3,29-67.3v-4.4
			c0-26.9-9.9-47.5-29.8-61.8c-19.8-14.2-52.1-24.5-96.7-30.9c-26-3.4-49.4-8.7-70.2-15.8c-20.8-7.1-38.6-16.4-53.3-27.9
			c-14.7-11.5-26-25.4-33.8-41.5c-7.8-16.2-11.8-35.3-11.8-57.3v-8.8c0-20.1,4.2-38.5,12.5-55.1c8.3-16.7,20-31.1,34.9-43.4
			c14.9-12.2,32.8-21.7,53.7-28.3c20.8-6.6,43.7-9.9,68.7-9.9c28.9,0,54.8,4.2,77.6,12.5c22.8,8.3,42,19.5,57.7,33.4
			c15.7,14,27.6,30.4,35.7,49.3c8.1,18.9,12.1,38.6,12.1,59.2v30.9h-61.8V1427.5z"/>
	</g>
</g>
</svg>
